<svg width="576" height="175" viewBox="0 0 576 175" fill="none" xmlns="http://www.w3.org/2000/svg">
<g clip-path="url(#clip0)">
<path d="M101.75 47.1001H528.19L575.06 56.0301L528.71 64.6601H101.75V47.1001Z" fill="#CCC8C8"/>
<path opacity="0.19" d="M575.06 56.12L530.38 64.76H118.78V55.98H574.35L575.06 56.12Z" fill="#636262"/>
<path d="M60.1904 47.1001H23.4404V66.5401H60.1904V47.1001Z" fill="#D8AF2E"/>
<path d="M33.9404 67.07V46.98C33.9404 46.98 78.9404 30.24 107.7 46.98V64.98C107.7 64.98 75.6804 78.37 33.9404 67.07Z" fill="black"/>
<path d="M14.47 70.3502C22.4616 70.3502 28.94 63.8717 28.94 55.8802C28.94 47.8886 22.4616 41.4102 14.47 41.4102C6.47844 41.4102 0 47.8886 0 55.8802C0 63.8717 6.47844 70.3502 14.47 70.3502Z" fill="#D8AF2E"/>
<path d="M42.2402 44.3898L43.7702 69.2998C43.7702 69.2998 43.3202 54.0098 48.3102 42.8798L53.7102 70.7998C53.7102 70.7998 48.1402 40.3898 58.4102 40.9498L61.9302 71.4498C61.9302 71.4498 60.7702 42.2498 66.0002 39.9998L70.8202 71.4498C70.8202 71.4498 68.2502 36.2498 75.7502 39.9998L78.0102 71.1998C78.0102 71.1998 78.1602 38.8498 85.5402 40.0798V70.3798C85.5402 70.3798 89.5402 39.7298 96.2302 42.1498L92.3202 69.2398C92.3202 69.2398 97.4302 41.8398 102.71 44.4698C107.99 47.0998 87.4802 32.2798 42.2402 44.3898Z" fill="#302F2F"/>
<path opacity="0.21" d="M28.7104 59.6698C28.1698 61.7525 27.1716 63.6884 25.7885 65.3366C24.4053 66.9848 22.672 68.3038 20.7147 69.1975C18.7575 70.0912 16.6255 70.5372 14.4741 70.503C12.3227 70.4687 10.206 69.9551 8.27819 68.9996C6.35035 68.044 4.65987 66.6705 3.32986 64.9792C1.99985 63.2878 1.06378 61.3211 0.589809 59.2223C0.115838 57.1235 0.115898 54.9454 0.589985 52.8466C1.06407 50.7478 2.00025 48.7811 3.33036 47.0898C2.50754 50.3035 2.81309 53.7022 4.19593 56.7175C5.57876 59.7329 7.95501 62.1819 10.9272 63.6552C13.8994 65.1284 17.2874 65.5364 20.5244 64.811C23.7614 64.0855 26.6512 62.2706 28.7104 59.6698V59.6698Z" fill="#282313"/>
<path d="M124.17 95.0302L124.87 74.1502C124.87 74.1502 132.64 66.8402 132.65 56.1502V55.5102C132.64 44.9202 124.87 37.6202 124.87 37.6202L124.17 16.7402C124.17 16.7402 139.83 9.74019 130.09 2.12019C120.35 -5.49981 112.69 10.1202 112.69 10.1202V101.62C112.69 101.62 120.35 117.28 130.09 109.62C139.83 101.96 124.17 95.0302 124.17 95.0302Z" fill="#D8AF2E"/>
<path opacity="0.07" d="M128.48 110.71C119.48 115.62 112.68 101.65 112.68 101.65V10.1099C112.68 10.1099 119.51 -3.89014 128.48 1.04986C123.62 3.62986 120.48 10.1099 120.48 10.1099V101.62C120.48 101.62 123.62 108.13 128.48 110.71Z" fill="black"/>
<path d="M5.7002 165V134.22H27.9602V137.85H9.7702V147.28H26.7702V150.89H9.7702V161.37H28.6702V165H5.7002Z" fill="black"/>
<path d="M31.29 165L39.44 153.41L31.9 142.7H36.62L40.04 147.93C40.68 148.93 41.2 149.76 41.59 150.43C42.21 149.51 42.77 148.69 43.29 147.97L47.05 142.7H51.56L43.85 153.2L52.14 165H47.5L42.92 158.07L41.7 156.2L35.84 165H31.29Z" fill="black"/>
<path d="M69.8598 156.84L73.5798 157.32C73.2941 159.629 72.1866 161.759 70.4598 163.32C68.7472 164.783 66.5514 165.556 64.2998 165.49C62.93 165.544 61.5643 165.305 60.2948 164.787C59.0253 164.27 57.8813 163.486 56.9398 162.49C55.0865 160.49 54.1598 157.63 54.1598 153.91C54.1132 151.742 54.522 149.589 55.3598 147.59C56.0827 145.866 57.3649 144.436 58.9998 143.53C60.6277 142.63 62.46 142.165 64.3198 142.18C66.4532 142.087 68.5527 142.737 70.2598 144.02C71.8697 145.33 72.9383 147.189 73.2598 149.24L69.5898 149.81C69.3518 148.511 68.6992 147.325 67.7298 146.43C66.8321 145.67 65.6856 145.267 64.5098 145.3C63.6362 145.266 62.7661 145.428 61.9632 145.774C61.1603 146.12 60.4451 146.641 59.8698 147.3C58.6798 148.67 58.0898 150.82 58.0898 153.78C58.0898 156.74 58.6598 158.95 59.8098 160.31C60.3574 160.962 61.0462 161.481 61.8241 161.828C62.6021 162.174 63.4487 162.339 64.2998 162.31C65.6687 162.352 67.0011 161.865 68.0198 160.95C69.0736 159.823 69.7211 158.376 69.8598 156.84Z" fill="black"/>
<path d="M91.36 162.25C90.1777 163.309 88.8254 164.161 87.36 164.77C86.0263 165.266 84.613 165.514 83.19 165.5C81.1488 165.634 79.132 164.995 77.54 163.71C76.8916 163.138 76.3765 162.43 76.0309 161.637C75.6854 160.844 75.5178 159.985 75.54 159.12C75.5264 158.072 75.7848 157.038 76.29 156.12C76.7582 155.252 77.4267 154.508 78.24 153.95C79.0712 153.388 79.9906 152.969 80.96 152.71C82.0672 152.451 83.1893 152.261 84.32 152.14C86.6043 151.931 88.8621 151.496 91.06 150.84C91.06 150.32 91.06 149.99 91.06 149.84C91.121 149.254 91.0572 148.661 90.8728 148.101C90.6884 147.54 90.3876 147.026 89.99 146.59C88.7602 145.654 87.2314 145.199 85.69 145.31C84.3123 145.207 82.9363 145.532 81.75 146.24C80.7639 147.096 80.1004 148.264 79.87 149.55L76.17 149.05C76.4223 147.663 76.9903 146.353 77.83 145.22C78.7111 144.173 79.8682 143.393 81.17 142.97C82.799 142.419 84.5106 142.151 86.23 142.18C87.8041 142.128 89.375 142.355 90.87 142.85C91.8433 143.125 92.718 143.671 93.3912 144.426C94.0644 145.181 94.508 146.112 94.67 147.11C94.8311 148.266 94.8946 149.434 94.86 150.6V155.6C94.8022 157.826 94.8824 160.054 95.1 162.27C95.2773 163.214 95.6156 164.121 96.1 164.95H92.1C91.6987 164.1 91.4483 163.186 91.36 162.25V162.25ZM91.05 153.81C89.0551 154.522 86.9848 155.002 84.88 155.24C83.7536 155.361 82.6458 155.616 81.58 156C80.9718 156.252 80.4529 156.681 80.09 157.23C79.6622 157.906 79.4895 158.713 79.6032 159.504C79.7168 160.296 80.1093 161.022 80.71 161.55C81.6671 162.281 82.8587 162.637 84.06 162.55C85.4188 162.564 86.7571 162.219 87.94 161.55C89.0247 160.961 89.8986 160.049 90.44 158.94C90.9121 157.738 91.1202 156.449 91.05 155.16V153.81Z" fill="black"/>
<path d="M100.64 165V134.22H104.42V165H100.64Z" fill="black"/>
<path d="M110.3 138.62V134.22H114.08V138.62H110.3ZM110.3 165.05V142.75H114.08V165.05H110.3Z" fill="black"/>
<path d="M123.32 165H119.77V134.22H123.55V145.22C124.258 144.272 125.181 143.506 126.244 142.984C127.306 142.463 128.476 142.201 129.66 142.22C131.004 142.216 132.333 142.499 133.56 143.05C134.732 143.574 135.761 144.373 136.56 145.38C137.393 146.464 138.023 147.691 138.42 149C138.876 150.469 139.102 152.001 139.09 153.54C139.09 157.36 138.146 160.313 136.26 162.4C135.423 163.386 134.381 164.177 133.206 164.718C132.032 165.259 130.753 165.536 129.46 165.53C128.23 165.565 127.013 165.279 125.927 164.7C124.842 164.122 123.926 163.27 123.27 162.23V165.02L123.32 165ZM123.32 153.69C123.32 156.36 123.68 158.3 124.41 159.48C124.829 160.291 125.447 160.983 126.207 161.49C126.966 161.998 127.842 162.304 128.752 162.381C129.662 162.458 130.577 162.303 131.41 161.93C132.244 161.557 132.97 160.979 133.52 160.25C134.72 158.82 135.33 156.68 135.33 153.84C135.33 151 134.75 148.78 133.6 147.39C133.108 146.744 132.475 146.22 131.748 145.859C131.021 145.499 130.221 145.31 129.41 145.31C128.579 145.318 127.762 145.516 127.02 145.888C126.278 146.261 125.632 146.799 125.13 147.46C123.88 148.9 123.28 150.97 123.28 153.69H123.32Z" fill="black"/>
<path d="M167.62 165V142.7H171.02V146.08C171.59 144.879 172.408 143.813 173.42 142.95C174.133 142.454 174.981 142.189 175.85 142.19C177.232 142.225 178.577 142.648 179.73 143.41L178.43 146.92C177.599 146.399 176.641 146.116 175.66 146.1C174.854 146.093 174.068 146.357 173.43 146.85C172.754 147.375 172.26 148.099 172.02 148.92C171.587 150.35 171.375 151.837 171.39 153.33V165H167.62Z" fill="black"/>
<path d="M193.03 155.11L196.87 154.77C196.987 156.116 197.423 157.415 198.14 158.56C198.92 159.64 199.997 160.47 201.24 160.95C202.734 161.577 204.341 161.887 205.96 161.86C207.364 161.885 208.761 161.651 210.08 161.17C211.132 160.808 212.057 160.147 212.74 159.27C213.307 158.51 213.612 157.587 213.61 156.64C213.628 155.725 213.331 154.832 212.77 154.11C212.029 153.263 211.071 152.634 210 152.29C208.201 151.696 206.371 151.195 204.52 150.79C202.475 150.373 200.483 149.729 198.58 148.87C197.25 148.219 196.116 147.229 195.29 146C194.567 144.854 194.192 143.524 194.21 142.17C194.21 140.618 194.669 139.101 195.53 137.81C196.47 136.411 197.818 135.335 199.39 134.73C201.186 134.01 203.106 133.654 205.04 133.68C207.093 133.647 209.132 134.021 211.04 134.78C212.667 135.437 214.06 136.565 215.04 138.02C215.984 139.465 216.507 141.144 216.55 142.87L212.64 143.16C212.598 142.32 212.388 141.496 212.022 140.739C211.656 139.981 211.142 139.305 210.51 138.75C208.948 137.652 207.055 137.126 205.15 137.26C202.69 137.26 200.894 137.71 199.76 138.61C199.239 138.979 198.813 139.467 198.519 140.034C198.225 140.601 198.071 141.231 198.07 141.87C198.056 142.385 198.157 142.897 198.364 143.369C198.572 143.841 198.881 144.262 199.27 144.6C200.05 145.31 202.1 146.05 205.41 146.79C207.734 147.257 210.013 147.926 212.22 148.79C213.817 149.449 215.201 150.535 216.22 151.93C217.08 153.227 217.527 154.754 217.5 156.31C217.497 157.958 217.007 159.569 216.09 160.94C215.11 162.427 213.721 163.601 212.09 164.32C210.225 165.151 208.202 165.564 206.16 165.53C203.768 165.6 201.387 165.185 199.16 164.31C197.362 163.545 195.833 162.26 194.77 160.62C193.661 158.994 193.055 157.078 193.03 155.11V155.11Z" fill="black"/>
<path d="M222.44 173.62L222.02 170.07C222.723 170.274 223.449 170.388 224.18 170.41C224.871 170.438 225.559 170.293 226.18 169.99C226.687 169.708 227.114 169.302 227.42 168.81C227.879 167.906 228.264 166.966 228.57 166C228.64 165.79 228.75 165.48 228.91 165.08L220.45 142.74H224.52L229.18 155.62C229.78 157.26 230.32 158.983 230.8 160.79C231.226 159.07 231.744 157.375 232.35 155.71L237.12 142.71H240.9L232.42 165.39C231.817 167.118 231.109 168.808 230.3 170.45C229.767 171.539 228.973 172.48 227.99 173.19C227.065 173.787 225.981 174.09 224.88 174.06C224.049 174.043 223.225 173.895 222.44 173.62V173.62Z" fill="black"/>
<path d="M242.6 158.35L246.34 157.76C246.458 159.09 247.085 160.322 248.09 161.2C249.24 162.059 250.657 162.484 252.09 162.4C253.461 162.51 254.827 162.135 255.95 161.34C256.335 161.049 256.649 160.673 256.867 160.241C257.086 159.81 257.203 159.334 257.21 158.85C257.214 158.449 257.114 158.054 256.92 157.703C256.725 157.353 256.442 157.059 256.1 156.85C254.871 156.266 253.574 155.836 252.24 155.57C250.271 155.13 248.344 154.521 246.48 153.75C245.494 153.313 244.658 152.596 244.076 151.687C243.495 150.779 243.194 149.719 243.21 148.64C243.204 147.678 243.438 146.73 243.89 145.88C244.336 145.042 244.973 144.319 245.75 143.77C246.482 143.272 247.294 142.9 248.15 142.67C249.209 142.364 250.307 142.212 251.41 142.22C252.98 142.188 254.543 142.446 256.02 142.98C257.168 143.351 258.186 144.046 258.95 144.98C259.646 146.014 260.091 147.195 260.25 148.43L256.55 148.93C256.439 147.876 255.914 146.908 255.09 146.24C254.1 145.528 252.897 145.176 251.68 145.24C250.38 145.131 249.079 145.432 247.96 146.1C247.629 146.322 247.357 146.619 247.164 146.967C246.971 147.314 246.863 147.703 246.85 148.1C246.844 148.581 247.007 149.048 247.31 149.42C247.695 149.878 248.196 150.223 248.76 150.42C249.14 150.56 250.25 150.88 252.1 151.42C254.001 151.888 255.871 152.472 257.7 153.17C258.702 153.588 259.566 154.282 260.19 155.17C260.815 156.129 261.129 157.257 261.09 158.4C261.085 159.67 260.702 160.91 259.99 161.96C259.202 163.11 258.097 164.006 256.81 164.54C255.324 165.168 253.723 165.478 252.11 165.45C249.21 165.45 247.003 164.847 245.49 163.64C243.897 162.302 242.865 160.414 242.6 158.35V158.35Z" fill="black"/>
<path d="M273.86 161.62L274.41 164.96C273.471 165.169 272.513 165.283 271.55 165.3C270.449 165.358 269.351 165.134 268.36 164.65C267.654 164.27 267.092 163.669 266.76 162.94C266.359 161.489 266.204 159.982 266.3 158.48V145.62H263.53V142.68H266.3V137.16L270.06 134.89V142.68H273.86V145.62H270.06V158.62C270.018 159.319 270.085 160.021 270.26 160.7C270.391 161.008 270.62 161.264 270.91 161.43C271.309 161.632 271.754 161.725 272.2 161.7C272.755 161.711 273.309 161.684 273.86 161.62V161.62Z" fill="black"/>
<path d="M292.82 157.82L296.73 158.3C296.223 160.405 295.017 162.277 293.31 163.61C291.161 165.014 288.607 165.665 286.049 165.463C283.49 165.26 281.071 164.214 279.17 162.49C277.263 160.49 276.306 157.673 276.3 154.04C276.3 150.293 277.266 147.383 279.2 145.31C280.158 144.284 281.325 143.475 282.622 142.939C283.92 142.402 285.317 142.15 286.72 142.2C288.082 142.15 289.438 142.393 290.699 142.91C291.96 143.427 293.095 144.208 294.03 145.2C295.916 147.2 296.86 150.056 296.86 153.77C296.86 153.99 296.86 154.33 296.86 154.77H280.21C280.2 156.836 280.939 158.836 282.29 160.4C282.886 161.034 283.609 161.535 284.412 161.871C285.215 162.207 286.08 162.37 286.95 162.35C288.221 162.388 289.469 162.005 290.5 161.26C291.59 160.362 292.397 159.167 292.82 157.82V157.82ZM280.41 151.71H292.86C292.82 150.191 292.322 148.72 291.43 147.49C290.873 146.787 290.16 146.224 289.348 145.846C288.535 145.467 287.646 145.284 286.75 145.31C285.94 145.289 285.135 145.432 284.382 145.732C283.629 146.031 282.945 146.479 282.37 147.05C281.153 148.301 280.453 149.965 280.41 151.71V151.71Z" fill="black"/>
<path d="M301.47 165V142.7H304.85V145.83C305.552 144.737 306.509 143.831 307.64 143.19C308.861 142.508 310.241 142.163 311.64 142.19C313.062 142.119 314.473 142.467 315.7 143.19C316.749 143.871 317.538 144.885 317.94 146.07C318.65 144.876 319.659 143.888 320.867 143.202C322.075 142.517 323.441 142.158 324.83 142.16C325.761 142.099 326.694 142.231 327.572 142.547C328.45 142.864 329.252 143.359 329.93 144C331.12 145.23 331.71 147.11 331.71 149.66V164.97H327.95V150.97C328.003 149.867 327.879 148.763 327.58 147.7C327.33 147.029 326.861 146.462 326.25 146.09C325.568 145.671 324.78 145.459 323.98 145.48C323.256 145.459 322.536 145.587 321.863 145.855C321.191 146.124 320.58 146.527 320.07 147.04C319.07 148.04 318.52 149.75 318.52 152.04V165.04H314.74V150.52C314.831 149.195 314.51 147.875 313.82 146.74C313.459 146.303 312.998 145.96 312.475 145.74C311.952 145.521 311.384 145.432 310.82 145.48C309.777 145.474 308.753 145.766 307.87 146.32C306.94 146.886 306.234 147.755 305.87 148.78C305.4 150.287 305.193 151.863 305.26 153.44V165.01H301.47V165Z" fill="black"/>
<path d="M335.77 158.35L339.51 157.76C339.628 159.09 340.255 160.322 341.26 161.2C342.41 162.059 343.827 162.484 345.26 162.4C346.631 162.51 347.997 162.135 349.12 161.34C349.505 161.049 349.819 160.673 350.037 160.241C350.256 159.81 350.373 159.334 350.38 158.85C350.384 158.449 350.284 158.054 350.089 157.703C349.895 157.353 349.612 157.059 349.27 156.85C348.042 156.264 346.745 155.834 345.41 155.57C343.441 155.13 341.514 154.521 339.65 153.75C338.663 153.313 337.828 152.596 337.246 151.687C336.665 150.779 336.363 149.719 336.38 148.64C336.374 147.678 336.608 146.73 337.06 145.88C337.506 145.042 338.143 144.319 338.92 143.77C339.652 143.272 340.464 142.9 341.32 142.67C342.379 142.364 343.477 142.212 344.58 142.22C346.15 142.188 347.713 142.446 349.19 142.98C350.338 143.351 351.356 144.046 352.12 144.98C352.816 146.014 353.261 147.195 353.42 148.43L349.72 148.93C349.599 147.879 349.076 146.914 348.26 146.24C347.27 145.528 346.067 145.176 344.85 145.24C343.55 145.131 342.249 145.432 341.13 146.1C340.799 146.322 340.526 146.619 340.333 146.967C340.14 147.314 340.033 147.703 340.02 148.1C340.014 148.581 340.177 149.048 340.48 149.42C340.865 149.878 341.365 150.223 341.93 150.42C342.31 150.56 343.42 150.88 345.27 151.42C347.168 151.886 349.035 152.47 350.86 153.17C351.862 153.588 352.725 154.282 353.35 155.17C353.975 156.129 354.289 157.257 354.25 158.4C354.245 159.67 353.862 160.91 353.15 161.96C352.362 163.11 351.257 164.006 349.97 164.54C348.484 165.168 346.883 165.478 345.27 165.45C342.37 165.45 340.16 164.847 338.64 163.64C337.059 162.295 336.036 160.409 335.77 158.35V158.35Z" fill="black"/>
<path d="M371.05 165V134.22H375.12V161.37H390.28V165H371.05Z" fill="black"/>
<path d="M402.9 161.62L403.45 164.96C402.511 165.169 401.553 165.283 400.59 165.3C399.489 165.358 398.391 165.134 397.4 164.65C396.694 164.27 396.132 163.669 395.8 162.94C395.399 161.489 395.244 159.982 395.34 158.48V145.62H392.57V142.68H395.34V137.16L399.1 134.89V142.68H402.9V145.62H399.1V158.62C399.058 159.319 399.125 160.021 399.3 160.7C399.431 161.008 399.66 161.264 399.95 161.43C400.349 161.632 400.794 161.725 401.24 161.7C401.795 161.711 402.35 161.685 402.9 161.62Z" fill="black"/>
<path d="M421.06 165V162.19C420.413 163.251 419.492 164.12 418.395 164.704C417.297 165.288 416.062 165.566 414.82 165.51C413.077 165.52 411.37 165.008 409.92 164.04C408.402 163.028 407.202 161.607 406.46 159.94C405.61 158.035 405.19 155.966 405.23 153.88C405.202 151.807 405.579 149.748 406.34 147.82C406.981 146.141 408.124 144.701 409.613 143.696C411.101 142.69 412.864 142.168 414.66 142.2C415.909 142.176 417.144 142.468 418.25 143.05C419.258 143.586 420.132 144.341 420.81 145.26V134.26H424.57V165.04L421.06 165ZM409.12 153.88C409.12 156.74 409.724 158.873 410.93 160.28C411.433 160.933 412.078 161.463 412.816 161.83C413.554 162.198 414.366 162.392 415.19 162.4C415.997 162.405 416.795 162.228 417.524 161.881C418.253 161.535 418.894 161.029 419.4 160.4C420.547 159.066 421.123 157.006 421.13 154.22C421.13 151.173 420.544 148.933 419.37 147.5C418.862 146.829 418.204 146.286 417.449 145.914C416.694 145.543 415.862 145.353 415.02 145.36C414.207 145.354 413.403 145.536 412.673 145.894C411.942 146.251 411.304 146.774 410.81 147.42C409.684 148.773 409.12 150.926 409.12 153.88Z" fill="black"/>
<path d="M431.58 165V160.7H435.88V165H431.58Z" fill="black"/>
<path d="M469.29 152.93V149.32H482.29V160.72C480.429 162.237 478.34 163.452 476.1 164.32C474.009 165.121 471.789 165.531 469.55 165.53C466.686 165.565 463.857 164.899 461.31 163.59C458.897 162.355 456.936 160.387 455.71 157.97C454.428 155.425 453.78 152.608 453.82 149.76C453.801 146.856 454.444 143.987 455.7 141.37C456.825 138.904 458.725 136.875 461.11 135.59C463.621 134.294 466.415 133.644 469.24 133.7C471.291 133.675 473.327 134.041 475.24 134.78C476.889 135.39 478.348 136.425 479.47 137.78C480.585 139.267 481.379 140.969 481.8 142.78L478.13 143.78C477.782 142.454 477.199 141.201 476.41 140.08C475.634 139.119 474.621 138.378 473.47 137.93C472.126 137.376 470.684 137.1 469.23 137.12C467.58 137.08 465.938 137.369 464.4 137.97C463.15 138.461 462.026 139.227 461.11 140.21C460.298 141.093 459.642 142.107 459.17 143.21C458.375 145.176 457.974 147.279 457.99 149.4C457.911 151.776 458.397 154.138 459.41 156.29C460.294 158.081 461.746 159.53 463.54 160.41C465.325 161.302 467.295 161.761 469.29 161.75C471.062 161.754 472.818 161.414 474.46 160.75C475.844 160.242 477.135 159.509 478.28 158.58V152.85L469.29 152.93Z" fill="black"/>
<path d="M487.77 165V142.7H491.17V146.08C491.739 144.879 492.557 143.813 493.57 142.95C494.283 142.454 495.131 142.189 496 142.19C497.382 142.225 498.726 142.648 499.88 143.41L498.58 146.92C497.748 146.399 496.79 146.116 495.81 146.1C495.003 146.093 494.218 146.357 493.58 146.85C492.903 147.375 492.41 148.099 492.17 148.92C491.737 150.35 491.524 151.837 491.54 153.33V165H487.77Z" fill="black"/>
<path d="M500.77 153.85C500.77 149.723 501.916 146.663 504.21 144.67C506.157 143.008 508.65 142.125 511.21 142.19C512.603 142.138 513.992 142.378 515.287 142.894C516.582 143.411 517.755 144.193 518.73 145.19C520.68 147.19 521.65 149.97 521.65 153.52C521.761 155.846 521.318 158.166 520.36 160.29C519.518 161.914 518.208 163.248 516.6 164.12C514.949 165.027 513.093 165.495 511.21 165.48C509.808 165.538 508.41 165.302 507.105 164.785C505.801 164.268 504.62 163.483 503.64 162.48C501.726 160.5 500.77 157.623 500.77 153.85ZM504.65 153.85C504.65 156.71 505.27 158.85 506.52 160.26C507.095 160.942 507.816 161.487 508.629 161.856C509.442 162.224 510.327 162.406 511.22 162.39C512.11 162.407 512.994 162.224 513.804 161.854C514.614 161.483 515.33 160.935 515.9 160.25C517.15 158.82 517.77 156.65 517.77 153.72C517.77 150.96 517.143 148.87 515.89 147.45C515.305 146.782 514.584 146.248 513.776 145.882C512.968 145.515 512.092 145.326 511.205 145.326C510.317 145.326 509.441 145.515 508.633 145.882C507.825 146.248 507.104 146.782 506.52 147.45C505.273 148.896 504.65 151.03 504.65 153.85Z" fill="black"/>
<path d="M540.7 165V161.72C539.946 162.907 538.898 163.879 537.657 164.541C536.417 165.203 535.026 165.534 533.62 165.5C532.354 165.512 531.099 165.253 529.94 164.74C528.939 164.346 528.061 163.69 527.4 162.84C526.818 162 526.419 161.046 526.23 160.04C526.048 158.873 525.971 157.692 526 156.51V142.69H529.77V155.06C529.728 156.398 529.805 157.737 530 159.06C530.207 159.996 530.743 160.826 531.51 161.4C532.345 161.99 533.35 162.288 534.37 162.25C535.493 162.255 536.595 161.954 537.56 161.38C538.51 160.85 539.253 160.015 539.67 159.01C540.144 157.608 540.355 156.13 540.29 154.65V142.65H544.07V164.95H540.69L540.7 165Z" fill="black"/>
<path d="M550 173.55V142.71H553.44V145.62C554.157 144.577 555.096 143.706 556.19 143.07C557.336 142.471 558.618 142.178 559.91 142.22C561.687 142.195 563.429 142.708 564.91 143.69C566.402 144.71 567.552 146.156 568.21 147.84C568.965 149.704 569.342 151.699 569.32 153.71C569.354 155.827 568.934 157.927 568.09 159.87C567.376 161.535 566.194 162.957 564.686 163.961C563.179 164.966 561.412 165.511 559.6 165.53C558.421 165.547 557.257 165.272 556.21 164.73C555.256 164.242 554.415 163.561 553.74 162.73V173.58L550 173.55ZM553.43 153.98C553.43 156.846 554.01 158.966 555.17 160.34C555.67 160.981 556.311 161.5 557.042 161.857C557.773 162.214 558.576 162.4 559.39 162.4C560.223 162.398 561.045 162.205 561.793 161.836C562.54 161.466 563.192 160.931 563.7 160.27C564.9 158.85 565.5 156.65 565.5 153.67C565.5 150.83 564.917 148.703 563.75 147.29C563.262 146.637 562.631 146.106 561.904 145.738C561.177 145.37 560.375 145.176 559.56 145.17C558.722 145.191 557.901 145.407 557.16 145.799C556.419 146.191 555.779 146.749 555.29 147.43C554.04 148.92 553.43 151.11 553.43 153.98Z" fill="black"/>
<path d="M158.706 165.35V162.07C157.952 163.257 156.904 164.228 155.663 164.891C154.423 165.553 153.032 165.883 151.626 165.85C150.359 165.862 149.105 165.603 147.946 165.09C146.944 164.696 146.067 164.04 145.406 163.19C144.823 162.35 144.425 161.395 144.236 160.39C144.053 159.223 143.976 158.041 144.006 156.86V143.04H147.776V155.41C147.734 156.748 147.811 158.086 148.006 159.41C148.213 160.346 148.749 161.176 149.516 161.75C150.351 162.339 151.356 162.638 152.376 162.6C153.499 162.604 154.601 162.303 155.566 161.73C156.516 161.2 157.259 160.365 157.676 159.36C158.15 157.957 158.36 156.479 158.296 155V143H162.076V165.3H158.696L158.706 165.35Z" fill="black"/>
</g>
<defs>
<clipPath id="clip0">
<rect width="575.06" height="174.06" fill="white"/>
</clipPath>
</defs>
</svg>
